<svg id="Layer_1" data-name="Layer 1" xmlns="http://www.w3.org/2000/svg" viewBox="0 0 919.85 306.65"><defs><style>.cls-1{fill:#3d93ff;}</style></defs><title>Artboard 23</title><path class="cls-1" d="M915.93,54.36c-13.79,25.16-55.78,30.17-81.09,33.14-32.69,3.83-61.77-4.31-93.55-10.5-15.79-3.08-33.71-3.78-48.89,2.3-8.06,3.22-17.88,11.78-20.83,20.06-5.87,16.48,9.78,30.61,25.09,32,14,1.26,30.11-4.15,43.48-8,21.57-6.15,42.55-14.55,64.7-18.51,31.89-5.71,72,1.93,91.92,29.9,16.79,23.59,8,57.22-4.49,80.63-8.59,16.08-21.63,29.68-36,40.71C816.79,286.36,759.17,304.9,710,292c-33.93-8.9-66.45-24.63-91.19-49.94C609,232,593.59,210.91,579.39,207c-14.66-4-19.87,8.34-30.71,17.12-27.26,22.08-47.83,47-83,54.3-24.32,5.06-50.18.39-73.75-6.27-23.74-6.7-46.95-18.72-65.14-35.63-4.06-3.77-8.38-8.56-14.5-6.33-6.84,2.5-11,10.52-16.37,15-7.4,6.14-15.37,12.18-22.92,17.74a215.52,215.52,0,0,1-34.7,20.87C170.08,316.86,80.81,318.73,26.66,258c-35-39.3-31.3-101.37-13.08-147.17,8.77-22.06,20.08-39.87,35.9-57.56,27.75-31,66.37-44.5,107.13-47.71S238.09,10.56,273.2,32c13.07,8,26.29,18.83,27.22,35.52.76,13.76-5.84,27.65-19,33.58-11.31,5.11-24.17,5.47-36.35,4.55-23.73-1.78-48.92-7.35-72.69-5.17-10.79,1-21,5.06-30.62,9.8-39.39,19.3-47.76,69.55-28.69,106.32,14,27,40.81,37.61,70.48,36.78a83.42,83.42,0,0,0,28.23-5.1,51.39,51.39,0,0,0,19.89-12.39c8.94-9.2,17.67-17.87,5.19-26.53-17.8-12.35-63.79-1.18-64.87-32.64-.36-10.47,10.57-18.33,19.76-20.82A73.58,73.58,0,0,1,223,154.78c9.66,1.64,19.16,4.39,29,4.58a110.92,110.92,0,0,0,46.11-9.11c9.14-4,17.82-9.3,28.05-9.91,18.09-1.08,35.18,10.12,46.11,23.72,11.75,14.62,25.86,33.56,46.64,33.57,22.26,0,44.79-12.52,62.67-24.78,26.21-18,53.49-37.77,87.47-31.27,23.76,4.55,44.77,18.2,67.57,25.62,31.49,10.25,54.81,19.33,89.4,37.08,13.88,7.12,33.17,22.72,50.63,15.47,7.78-3.25,9.94-10.53,6.45-17.81-5.87-12.25-28.1-19.19-40.19-23.28-53-17.89-145.45-14.18-162.28-81.91-7.73-31.12-1.32-63.49,27.29-81.83C635.9-3,669.61-1.51,701.15,2.78c28,3.8,55.07,14.17,83.59,14,28.83-.23,56.6-10.63,85.54-10.33,20.65.21,51.83,13.72,49.44,36.52A30.47,30.47,0,0,1,915.93,54.36Z"/></svg>